#N canvas 533 52 563 345 12;
#X obj 213 260 output~;
#X obj 20 137 osc~ 100;
#X obj 83 137 osc~ 200;
#X obj 146 137 osc~ 300;
#X obj 209 137 osc~ 400;
#X obj 276 137 osc~ 500;
#X obj 339 137 osc~ 600;
#X obj 402 137 osc~ 700;
#X obj 465 137 osc~ 800;
#X obj 20 169 *~ 1;
#X obj 83 169 *~ 0.7;
#X obj 146 169 *~ 0.6;
#X obj 209 169 *~ 0.5;
#X obj 276 170 *~ 0.4;
#X obj 339 170 *~ 0.3;
#X obj 402 170 *~ 0.2;
#X obj 465 170 *~ 0.1;
#X obj 20 105 * 1;
#X obj 83 105 * 2;
#X obj 146 105 * 3;
#X obj 209 105 * 4;
#X obj 276 104 * 5;
#X obj 339 104 * 6;
#X obj 402 104 * 7;
#X obj 465 104 * 8;
#X floatatom 20 32 10 0 0 0 - - -;
#X text 96 30 fundamental freq.;
#X connect 1 0 9 0;
#X connect 2 0 10 0;
#X connect 3 0 11 0;
#X connect 4 0 12 0;
#X connect 5 0 13 0;
#X connect 6 0 14 0;
#X connect 7 0 15 0;
#X connect 8 0 16 0;
#X connect 9 0 0 0;
#X connect 9 0 0 1;
#X connect 10 0 0 0;
#X connect 10 0 0 1;
#X connect 11 0 0 0;
#X connect 11 0 0 1;
#X connect 12 0 0 0;
#X connect 12 0 0 1;
#X connect 13 0 0 0;
#X connect 13 0 0 1;
#X connect 14 0 0 0;
#X connect 14 0 0 1;
#X connect 15 0 0 0;
#X connect 15 0 0 1;
#X connect 16 0 0 0;
#X connect 16 0 0 1;
#X connect 17 0 1 0;
#X connect 18 0 2 0;
#X connect 19 0 3 0;
#X connect 20 0 4 0;
#X connect 21 0 5 0;
#X connect 22 0 6 0;
#X connect 23 0 7 0;
#X connect 24 0 8 0;
#X connect 25 0 17 0;
#X connect 25 0 18 0;
#X connect 25 0 19 0;
#X connect 25 0 20 0;
#X connect 25 0 21 0;
#X connect 25 0 22 0;
#X connect 25 0 23 0;
#X connect 25 0 24 0;
