#N canvas 327 25 964 461 12;
#X obj 30 115 * 1;
#X floatatom 30 42 10 0 0 0 - - -;
#X text 106 40 fundamental freq.;
#X obj 65 115 random 100;
#X obj 65 143 / 100;
#X floatatom 65 171 5 0 0 0 - - -;
#X obj 30 199 *~;
#X obj 30 143 osc~;
#X obj 178 115 random 100;
#X obj 178 143 / 100;
#X floatatom 178 171 5 0 0 0 - - -;
#X obj 143 199 *~;
#X obj 143 143 osc~;
#X obj 143 115 * 2;
#X obj 291 115 random 100;
#X obj 291 143 / 100;
#X floatatom 291 171 5 0 0 0 - - -;
#X obj 256 199 *~;
#X obj 256 143 osc~;
#X obj 256 115 * 3;
#X obj 404 115 random 100;
#X obj 404 143 / 100;
#X floatatom 404 171 5 0 0 0 - - -;
#X obj 369 199 *~;
#X obj 369 143 osc~;
#X obj 369 115 * 4;
#X obj 517 114 random 100;
#X obj 517 142 / 100;
#X floatatom 517 170 5 0 0 0 - - -;
#X obj 482 198 *~;
#X obj 482 142 osc~;
#X obj 630 114 random 100;
#X obj 630 142 / 100;
#X floatatom 630 170 5 0 0 0 - - -;
#X obj 595 198 *~;
#X obj 595 142 osc~;
#X obj 743 114 random 100;
#X obj 743 142 / 100;
#X floatatom 743 170 5 0 0 0 - - -;
#X obj 708 198 *~;
#X obj 708 142 osc~;
#X obj 856 114 random 100;
#X obj 856 142 / 100;
#X floatatom 856 170 5 0 0 0 - - -;
#X obj 821 198 *~;
#X obj 821 142 osc~;
#X obj 482 114 * 5;
#X obj 595 114 * 6;
#X obj 708 114 * 7;
#X obj 821 114 * 8;
#X obj 294 42 bng 15 250 50 0 empty empty empty 17 7 0 10 -262144 -1
-1;
#X text 317 41 change sound color;
#X obj 429 321 +~;
#X obj 429 373 output~;
#X connect 0 0 7 0;
#X connect 1 0 0 0;
#X connect 1 0 13 0;
#X connect 1 0 19 0;
#X connect 1 0 25 0;
#X connect 1 0 46 0;
#X connect 1 0 47 0;
#X connect 1 0 48 0;
#X connect 1 0 49 0;
#X connect 3 0 4 0;
#X connect 4 0 5 0;
#X connect 5 0 6 1;
#X connect 6 0 52 0;
#X connect 7 0 6 0;
#X connect 8 0 9 0;
#X connect 9 0 10 0;
#X connect 10 0 11 1;
#X connect 11 0 52 0;
#X connect 12 0 11 0;
#X connect 13 0 12 0;
#X connect 14 0 15 0;
#X connect 15 0 16 0;
#X connect 16 0 17 1;
#X connect 17 0 52 0;
#X connect 18 0 17 0;
#X connect 19 0 18 0;
#X connect 20 0 21 0;
#X connect 21 0 22 0;
#X connect 22 0 23 1;
#X connect 23 0 52 0;
#X connect 24 0 23 0;
#X connect 25 0 24 0;
#X connect 26 0 27 0;
#X connect 27 0 28 0;
#X connect 28 0 29 1;
#X connect 29 0 52 0;
#X connect 30 0 29 0;
#X connect 31 0 32 0;
#X connect 32 0 33 0;
#X connect 33 0 34 1;
#X connect 34 0 52 0;
#X connect 35 0 34 0;
#X connect 36 0 37 0;
#X connect 37 0 38 0;
#X connect 38 0 39 1;
#X connect 39 0 52 0;
#X connect 40 0 39 0;
#X connect 41 0 42 0;
#X connect 42 0 43 0;
#X connect 43 0 44 1;
#X connect 44 0 52 0;
#X connect 45 0 44 0;
#X connect 46 0 30 0;
#X connect 47 0 35 0;
#X connect 48 0 40 0;
#X connect 49 0 45 0;
#X connect 50 0 3 0;
#X connect 50 0 8 0;
#X connect 50 0 14 0;
#X connect 50 0 20 0;
#X connect 50 0 26 0;
#X connect 50 0 31 0;
#X connect 50 0 36 0;
#X connect 50 0 41 0;
#X connect 52 0 53 0;
#X connect 52 0 53 1;
