#N canvas 393 22 941 479 12;
#X obj 17 112 * 1;
#X floatatom 17 137 5 0 0 0 - - -;
#X obj 17 161 osc~;
#X obj 17 261 *~;
#X obj 59 112 random 100;
#X obj 59 137 / 100;
#X floatatom 59 162 5 0 0 0 - - -;
#X floatatom 139 137 5 0 0 0 - - -;
#X obj 139 161 osc~;
#X obj 139 261 *~;
#X obj 180 112 random 100;
#X obj 180 137 / 100;
#X floatatom 180 162 5 0 0 0 - - -;
#X floatatom 266 137 5 0 0 0 - - -;
#X obj 266 161 osc~;
#X obj 266 261 *~;
#X obj 306 112 random 100;
#X obj 306 137 / 100;
#X floatatom 306 162 5 0 0 0 - - -;
#X floatatom 388 137 5 0 0 0 - - -;
#X obj 388 161 osc~;
#X obj 388 261 *~;
#X obj 429 112 random 100;
#X obj 429 137 / 100;
#X floatatom 429 162 5 0 0 0 - - -;
#X floatatom 507 137 5 0 0 0 - - -;
#X obj 507 161 osc~;
#X obj 507 261 *~;
#X obj 548 112 random 100;
#X obj 548 137 / 100;
#X floatatom 548 162 5 0 0 0 - - -;
#X floatatom 626 137 5 0 0 0 - - -;
#X obj 626 161 osc~;
#X obj 626 261 *~;
#X obj 666 112 random 100;
#X obj 666 137 / 100;
#X floatatom 666 162 5 0 0 0 - - -;
#X floatatom 746 137 5 0 0 0 - - -;
#X obj 746 161 osc~;
#X obj 746 261 *~;
#X obj 786 112 random 100;
#X obj 786 137 / 100;
#X floatatom 786 162 5 0 0 0 - - -;
#X obj 139 112 * 2;
#X obj 266 112 * 3;
#X obj 388 112 * 4;
#X obj 507 112 * 5;
#X obj 626 112 * 6;
#X obj 746 112 * 7;
#X floatatom 283 21 5 0 0 0 - - -;
#X obj 523 14 bng 15 250 50 0 empty empty empty 0 -6 0 8 -262144 -1
-1;
#X obj 59 211 line~;
#X msg 59 186 \$1 3000;
#X obj 180 211 line~;
#X msg 180 186 \$1 3000;
#X obj 306 211 line~;
#X msg 306 186 \$1 3000;
#X obj 429 211 line~;
#X msg 429 186 \$1 3000;
#X obj 548 211 line~;
#X msg 548 186 \$1 3000;
#X obj 666 211 line~;
#X msg 666 186 \$1 3000;
#X obj 786 211 line~;
#X msg 786 186 \$1 3000;
#X text 326 20 Fundamental;
#X obj 398 394 output~;
#X obj 398 358 +~;
#X connect 0 0 1 0;
#X connect 1 0 2 0;
#X connect 2 0 3 0;
#X connect 3 0 67 0;
#X connect 4 0 5 0;
#X connect 5 0 6 0;
#X connect 6 0 52 0;
#X connect 7 0 8 0;
#X connect 8 0 9 0;
#X connect 9 0 67 0;
#X connect 10 0 11 0;
#X connect 11 0 12 0;
#X connect 12 0 54 0;
#X connect 13 0 14 0;
#X connect 14 0 15 0;
#X connect 15 0 67 0;
#X connect 16 0 17 0;
#X connect 17 0 18 0;
#X connect 18 0 56 0;
#X connect 19 0 20 0;
#X connect 20 0 21 0;
#X connect 21 0 67 0;
#X connect 22 0 23 0;
#X connect 23 0 24 0;
#X connect 24 0 58 0;
#X connect 25 0 26 0;
#X connect 26 0 27 0;
#X connect 27 0 67 0;
#X connect 28 0 29 0;
#X connect 29 0 30 0;
#X connect 30 0 60 0;
#X connect 31 0 32 0;
#X connect 32 0 33 0;
#X connect 33 0 67 0;
#X connect 34 0 35 0;
#X connect 35 0 36 0;
#X connect 36 0 62 0;
#X connect 37 0 38 0;
#X connect 38 0 39 0;
#X connect 39 0 67 0;
#X connect 40 0 41 0;
#X connect 41 0 42 0;
#X connect 42 0 64 0;
#X connect 43 0 7 0;
#X connect 44 0 13 0;
#X connect 45 0 19 0;
#X connect 46 0 25 0;
#X connect 47 0 31 0;
#X connect 48 0 37 0;
#X connect 49 0 0 0;
#X connect 49 0 43 0;
#X connect 49 0 44 0;
#X connect 49 0 45 0;
#X connect 49 0 46 0;
#X connect 49 0 47 0;
#X connect 49 0 48 0;
#X connect 50 0 4 0;
#X connect 50 0 10 0;
#X connect 50 0 16 0;
#X connect 50 0 22 0;
#X connect 50 0 28 0;
#X connect 50 0 34 0;
#X connect 50 0 40 0;
#X connect 51 0 3 1;
#X connect 52 0 51 0;
#X connect 53 0 9 1;
#X connect 54 0 53 0;
#X connect 55 0 15 1;
#X connect 56 0 55 0;
#X connect 57 0 21 1;
#X connect 58 0 57 0;
#X connect 59 0 27 1;
#X connect 60 0 59 0;
#X connect 61 0 33 1;
#X connect 62 0 61 0;
#X connect 63 0 39 1;
#X connect 64 0 63 0;
#X connect 67 0 66 0;
#X connect 67 0 66 1;
