#N canvas 62 33 1051 455 12;
#X obj 99 65 bng 15 250 50 0 empty empty empty 0 -6 0 8 -262144 -1
-1;
#X obj 40 152 noise~;
#X obj 40 236 bp~ 0 50;
#X obj 66 183 random 10000;
#X floatatom 66 210 5 0 0 0 - - -;
#X obj 99 152 bng 15 250 50 0 empty empty empty 0 -6 0 8 -262144 -1
-1;
#X text 127 64 change filter freq;
#X obj 413 319 output~;
#X obj 158 152 noise~;
#X obj 158 236 bp~ 0 50;
#X obj 184 183 random 10000;
#X floatatom 184 210 5 0 0 0 - - -;
#X obj 217 152 bng 15 250 50 0 empty empty empty 0 -6 0 8 -262144 -1
-1;
#X obj 274 152 noise~;
#X obj 274 236 bp~ 0 50;
#X obj 300 183 random 10000;
#X floatatom 300 210 5 0 0 0 - - -;
#X obj 333 152 bng 15 250 50 0 empty empty empty 0 -6 0 8 -262144 -1
-1;
#X obj 392 152 noise~;
#X obj 392 236 bp~ 0 50;
#X obj 418 183 random 10000;
#X floatatom 418 210 5 0 0 0 - - -;
#X obj 451 152 bng 15 250 50 0 empty empty empty 0 -6 0 8 -262144 -1
-1;
#X obj 510 152 noise~;
#X obj 510 236 bp~ 0 50;
#X obj 536 183 random 10000;
#X floatatom 536 210 5 0 0 0 - - -;
#X obj 569 152 bng 15 250 50 0 empty empty empty 0 -6 0 8 -262144 -1
-1;
#X obj 628 152 noise~;
#X obj 628 236 bp~ 0 50;
#X obj 654 183 random 10000;
#X floatatom 654 210 5 0 0 0 - - -;
#X obj 687 152 bng 15 250 50 0 empty empty empty 0 -6 0 8 -262144 -1
-1;
#X obj 744 152 noise~;
#X obj 744 236 bp~ 0 50;
#X obj 770 183 random 10000;
#X floatatom 770 210 5 0 0 0 - - -;
#X obj 803 152 bng 15 250 50 0 empty empty empty 0 -6 0 8 -262144 -1
-1;
#X obj 862 152 noise~;
#X obj 862 236 bp~ 0 50;
#X obj 888 183 random 10000;
#X floatatom 888 210 5 0 0 0 - - -;
#X obj 921 152 bng 15 250 50 0 empty empty empty 0 -6 0 8 -262144 -1
-1;
#X connect 0 0 5 0;
#X connect 0 0 12 0;
#X connect 0 0 17 0;
#X connect 0 0 22 0;
#X connect 0 0 27 0;
#X connect 0 0 32 0;
#X connect 0 0 37 0;
#X connect 0 0 42 0;
#X connect 1 0 2 0;
#X connect 2 0 7 0;
#X connect 3 0 4 0;
#X connect 4 0 2 1;
#X connect 5 0 3 0;
#X connect 8 0 9 0;
#X connect 9 0 7 0;
#X connect 10 0 11 0;
#X connect 11 0 9 1;
#X connect 12 0 10 0;
#X connect 13 0 14 0;
#X connect 14 0 7 0;
#X connect 15 0 16 0;
#X connect 16 0 14 1;
#X connect 17 0 15 0;
#X connect 18 0 19 0;
#X connect 19 0 7 0;
#X connect 20 0 21 0;
#X connect 21 0 19 1;
#X connect 22 0 20 0;
#X connect 23 0 24 0;
#X connect 24 0 7 1;
#X connect 25 0 26 0;
#X connect 26 0 24 1;
#X connect 27 0 25 0;
#X connect 28 0 29 0;
#X connect 29 0 7 1;
#X connect 30 0 31 0;
#X connect 31 0 29 1;
#X connect 32 0 30 0;
#X connect 33 0 34 0;
#X connect 34 0 7 1;
#X connect 35 0 36 0;
#X connect 36 0 34 1;
#X connect 37 0 35 0;
#X connect 38 0 39 0;
#X connect 39 0 7 1;
#X connect 40 0 41 0;
#X connect 41 0 39 1;
#X connect 42 0 40 0;
