#N canvas 527 26 607 588 12;
#X obj 67 105 cycle~ 440;
#X text 64 43 carrier;
#X floatatom 67 76 5 0 0 0 - - -;
#X obj 67 161 *~ 0.5;
#X floatatom 106 133 5 0 0 0 - - -;
#X obj 67 223 *~;
#X floatatom 174 75 5 0 0 0 - - -;
#X obj 174 134 *~ 0.5;
#X floatatom 261 104 5 0 0 0 - - -;
#X obj 174 167 +~ 0.5;
#X obj 261 133 / 2;
#X text 172 43 modulator;
#X text 62 20 -------- AM ---------;
#X obj 67 269 *~;
#X obj 105 241 tgl 15 0 empty empty empty 17 7 0 10 -262144 -1 -1 0
1;
#X obj 189 353 output~;
#X obj 174 104 cycle~ 10;
#X obj 339 106 cycle~ 440;
#X text 336 44 carrier;
#X floatatom 339 77 5 0 0 0 - - -;
#X obj 339 162 *~ 0.5;
#X floatatom 378 134 5 0 0 0 - - -;
#X obj 339 224 *~;
#X floatatom 446 76 5 0 0 0 - - -;
#X obj 446 135 *~ 0.5;
#X floatatom 533 105 5 0 0 0 - - -;
#X text 444 44 modulator;
#X obj 339 270 *~;
#X obj 377 242 tgl 15 0 empty empty empty 17 7 0 10 -262144 -1 -1 0
1;
#X obj 446 105 cycle~ 10;
#X text 334 21 -------- RM ---------;
#N canvas 122 211 558 609 fft 0;
#X obj 19 61 inlet~;
#X obj 208 212 inlet;
#X obj 29 92 rfft~;
#X obj 29 125 *~;
#X obj 60 125 *~;
#X obj 29 155 sqrt~;
#X obj 332 109 block~ 4096 1;
#X obj 29 181 biquad~ 0 0 0 0 1;
#X text 93 93 Fourier series;
#X text 98 146 magnitude;
#X text 96 131 calculate;
#X text 21 3 This subpatch computes the spectrum of the incoming signal
with a (rectangular windowed) FFT. FFTs aren't properly introduced
until much later.;
#X text 83 61 signal to analyze;
#X text 193 164 delay two samples;
#X text 191 182 for better graphing;
#X obj 19 459 samplerate~;
#X obj 19 436 bng 18 250 50 0 empty empty empty 0 -6 0 8 -262144 -1
-1;
#X floatatom 19 506 5 0 0 0 - - -;
#X obj 19 482 / 256;
#X obj 19 412 loadbang;
#X obj 75 528 s fundamental;
#X text 17 359 At load time \, calculate a good choice of fundamental
frequency for showing spectra: the 16th bin in a 4096-point spectrum
\, so SR*16/4096 or SR/256.;
#X obj 231 259 metro 500;
#X obj 231 236 inlet;
#X text 284 234 toggle to graph repeatedly;
#X text 262 212 bang to graph once;
#X obj 19 295 tabwrite~ E09-signal;
#X obj 19 528 t b f;
#X msg 19 551 \; cm 6;
#X text 25 585 set carrier multiplier after fundamental;
#X obj 29 205 /~ 4096;
#X msg 209 322 \; pd dsp 1;
#X obj 231 298 tabwrite~ spectrum;
#X connect 0 0 2 0;
#X connect 0 0 26 0;
#X connect 1 0 26 0;
#X connect 1 0 31 0;
#X connect 1 0 32 0;
#X connect 2 0 3 0;
#X connect 2 0 3 1;
#X connect 2 1 4 0;
#X connect 2 1 4 1;
#X connect 3 0 5 0;
#X connect 4 0 5 0;
#X connect 5 0 7 0;
#X connect 7 0 30 0;
#X connect 15 0 18 0;
#X connect 16 0 15 0;
#X connect 17 0 27 0;
#X connect 18 0 17 0;
#X connect 19 0 16 0;
#X connect 22 0 26 0;
#X connect 22 0 32 0;
#X connect 23 0 22 0;
#X connect 23 0 31 0;
#X connect 27 0 28 0;
#X connect 27 1 20 0;
#X connect 30 0 32 0;
#X restore 331 342 pd fft;
#X obj 391 321 bng 18 250 50 0 empty empty empty 0 -6 0 8 -262144 -1
-1;
#X obj 391 342 tgl 18 0 empty empty empty 0 -6 0 8 -262144 -1 -1 0
1;
#X text 412 341 <-- repeatedly;
#X text 413 321 <-- graph once;
#N canvas 0 22 450 300 (subpatch) 0;
#X array spectrum 259 float 0;
#X coords 0 0.51 258 -0.008 259 130 1 0 0;
#X restore 108 419 graph;
#X text 123 236 on/off;
#X text 396 236 on/off;
#X connect 0 0 3 0;
#X connect 2 0 0 0;
#X connect 3 0 5 0;
#X connect 4 0 3 1;
#X connect 5 0 13 0;
#X connect 6 0 16 0;
#X connect 7 0 9 0;
#X connect 8 0 7 1;
#X connect 8 0 10 0;
#X connect 9 0 5 1;
#X connect 10 0 9 1;
#X connect 13 0 15 0;
#X connect 13 0 15 1;
#X connect 13 0 31 0;
#X connect 14 0 13 1;
#X connect 16 0 7 0;
#X connect 17 0 20 0;
#X connect 19 0 17 0;
#X connect 20 0 22 0;
#X connect 21 0 20 1;
#X connect 22 0 27 0;
#X connect 23 0 29 0;
#X connect 24 0 22 1;
#X connect 25 0 24 1;
#X connect 27 0 15 0;
#X connect 27 0 15 1;
#X connect 27 0 31 0;
#X connect 28 0 27 1;
#X connect 29 0 24 0;
#X connect 32 0 31 1;
#X connect 33 0 31 2;
