#N canvas 531 30 414 497 12;
#X obj 36 154 +~;
#X floatatom 185 74 5 0 0 0 - - -;
#X obj 96 99 osc~ 1;
#X floatatom 96 73 5 0 0 0 - - -;
#X floatatom 36 73 5 0 0 0 - - -;
#X text 31 50 Carrier;
#X text 98 48 Modulator;
#X obj 36 254 output~;
#X text 184 48 Modulation Index;
#X obj 96 127 *~ 100;
#X obj 36 184 osc~ 440;
#N canvas 122 211 558 609 fft 0;
#X obj 19 61 inlet~;
#X obj 208 212 inlet;
#X obj 29 92 rfft~;
#X obj 29 125 *~;
#X obj 60 125 *~;
#X obj 29 155 sqrt~;
#X obj 332 109 block~ 4096 1;
#X obj 29 181 biquad~ 0 0 0 0 1;
#X text 93 93 Fourier series;
#X text 98 146 magnitude;
#X text 96 131 calculate;
#X text 21 3 This subpatch computes the spectrum of the incoming signal
with a (rectangular windowed) FFT. FFTs aren't properly introduced
until much later.;
#X text 83 61 signal to analyze;
#X text 193 164 delay two samples;
#X text 191 182 for better graphing;
#X obj 19 459 samplerate~;
#X obj 19 436 bng 18 250 50 0 empty empty empty 0 -6 0 8 -262144 -1
-1;
#X floatatom 19 506 5 0 0 0 - - -;
#X obj 19 482 / 256;
#X obj 19 412 loadbang;
#X obj 75 528 s fundamental;
#X text 17 359 At load time \, calculate a good choice of fundamental
frequency for showing spectra: the 16th bin in a 4096-point spectrum
\, so SR*16/4096 or SR/256.;
#X obj 231 259 metro 500;
#X obj 231 236 inlet;
#X text 284 234 toggle to graph repeatedly;
#X text 262 212 bang to graph once;
#X obj 19 295 tabwrite~ E09-signal;
#X obj 19 528 t b f;
#X msg 19 551 \; cm 6;
#X text 25 585 set carrier multiplier after fundamental;
#X obj 29 205 /~ 4096;
#X msg 209 322 \; pd dsp 1;
#X obj 231 298 tabwrite~ spectrum;
#X connect 0 0 2 0;
#X connect 0 0 26 0;
#X connect 1 0 26 0;
#X connect 1 0 31 0;
#X connect 1 0 32 0;
#X connect 2 0 3 0;
#X connect 2 0 3 1;
#X connect 2 1 4 0;
#X connect 2 1 4 1;
#X connect 3 0 5 0;
#X connect 4 0 5 0;
#X connect 5 0 7 0;
#X connect 7 0 30 0;
#X connect 15 0 18 0;
#X connect 16 0 15 0;
#X connect 17 0 27 0;
#X connect 18 0 17 0;
#X connect 19 0 16 0;
#X connect 22 0 26 0;
#X connect 22 0 32 0;
#X connect 23 0 22 0;
#X connect 23 0 31 0;
#X connect 27 0 28 0;
#X connect 27 1 20 0;
#X connect 30 0 32 0;
#X restore 111 252 pd fft;
#X obj 150 208 bng 18 250 50 0 empty empty empty 0 -6 0 8 -262144 -1
-1;
#X obj 150 229 tgl 18 0 empty empty empty 0 -6 0 8 -262144 -1 -1 1
1;
#X text 171 228 <-- repeatedly;
#X text 172 208 <-- graph once;
#N canvas 0 22 450 300 (subpatch) 0;
#X array spectrum 259 float 0;
#X coords 0 0.51 258 -0.008 259 130 1 0 0;
#X restore 35 318 graph;
#X text 31 14 ------------- FM -------------;
#X connect 0 0 10 0;
#X connect 1 0 9 1;
#X connect 2 0 9 0;
#X connect 3 0 2 0;
#X connect 4 0 0 0;
#X connect 9 0 0 1;
#X connect 10 0 7 1;
#X connect 10 0 7 0;
#X connect 10 0 11 0;
#X connect 12 0 11 1;
#X connect 13 0 11 2;
