#N canvas 556 22 593 532 12;
#X obj 103 305 *~;
#X obj 118 281 line~;
#X obj 28 379 cos~;
#X obj 28 354 +~;
#X obj 118 258 pack 0 50;
#X floatatom 118 210 8 0 1000 0 - - -;
#X obj 118 234 / 100;
#X obj 28 138 phasor~;
#X obj 29 445 output~;
#X obj 28 414 hip~;
#X obj 103 137 osc~;
#X floatatom 28 68 5 0 15 0 - - -;
#X obj 28 111 *;
#X text 25 15 carrier;
#X obj 103 111 *;
#X floatatom 103 68 5 0 15 0 - - -;
#X text 101 15 mod 1;
#X text 116 161 index1;
#X obj 196 307 *~;
#X obj 211 283 line~;
#X obj 211 260 pack 0 50;
#X floatatom 211 212 8 0 1000 0 - - -;
#X obj 211 236 / 100;
#X obj 196 139 osc~;
#X obj 196 111 *;
#X floatatom 196 68 5 0 15 0 - - -;
#X text 194 16 mod 2;
#X text 214 161 index2;
#N canvas 122 211 558 609 fft 0;
#X obj 19 61 inlet~;
#X obj 208 212 inlet;
#X obj 29 92 rfft~;
#X obj 29 125 *~;
#X obj 60 125 *~;
#X obj 29 155 sqrt~;
#X obj 332 109 block~ 4096 1;
#X obj 29 181 biquad~ 0 0 0 0 1;
#X text 93 93 Fourier series;
#X text 98 146 magnitude;
#X text 96 131 calculate;
#X text 21 3 This subpatch computes the spectrum of the incoming signal
with a (rectangular windowed) FFT. FFTs aren't properly introduced
until much later.;
#X text 83 61 signal to analyze;
#X text 193 164 delay two samples;
#X text 191 182 for better graphing;
#X obj 19 459 samplerate~;
#X obj 19 436 bng 18 250 50 0 empty empty empty 0 -6 0 8 -262144 -1
-1;
#X floatatom 19 506 5 0 0 0 - - -;
#X obj 19 482 / 256;
#X obj 19 412 loadbang;
#X obj 75 528 s fundamental;
#X text 17 359 At load time \, calculate a good choice of fundamental
frequency for showing spectra: the 16th bin in a 4096-point spectrum
\, so SR*16/4096 or SR/256.;
#X obj 231 259 metro 500;
#X obj 231 236 inlet;
#X text 284 234 toggle to graph repeatedly;
#X text 262 212 bang to graph once;
#X obj 19 295 tabwrite~ E09-signal;
#X obj 19 528 t b f;
#X msg 19 551 \; cm 6;
#X text 25 585 set carrier multiplier after fundamental;
#X obj 29 205 /~ 4096;
#X msg 209 322 \; pd dsp 1;
#X obj 231 298 tabwrite~ spectrum;
#X connect 0 0 2 0;
#X connect 0 0 26 0;
#X connect 1 0 26 0;
#X connect 1 0 31 0;
#X connect 1 0 32 0;
#X connect 2 0 3 0;
#X connect 2 0 3 1;
#X connect 2 1 4 0;
#X connect 2 1 4 1;
#X connect 3 0 5 0;
#X connect 4 0 5 0;
#X connect 5 0 7 0;
#X connect 7 0 30 0;
#X connect 15 0 18 0;
#X connect 16 0 15 0;
#X connect 17 0 27 0;
#X connect 18 0 17 0;
#X connect 19 0 16 0;
#X connect 22 0 26 0;
#X connect 22 0 32 0;
#X connect 23 0 22 0;
#X connect 23 0 31 0;
#X connect 27 0 28 0;
#X connect 27 1 20 0;
#X connect 30 0 32 0;
#X restore 64 415 pd fft;
#X obj 103 371 bng 18 250 50 0 empty empty empty 0 -6 0 8 -262144 -1
-1;
#X obj 103 392 tgl 18 0 empty empty empty 0 -6 0 8 -262144 -1 -1 1
1;
#X text 124 391 <-- repeatedly;
#X text 125 371 <-- graph once;
#N canvas 0 22 450 300 (subpatch) 0;
#X array spectrum 259 float 0;
#X coords 0 0.51 258 -0.008 259 130 1 0 0;
#X restore 271 349 graph;
#X floatatom 280 68 8 0 0 0 - - -;
#X text 275 16 Fundamental Freq.;
#X obj 28 37 r c;
#X obj 103 37 r m1;
#X obj 196 37 r m2;
#X obj 280 38 r freq;
#X obj 118 185 r i1;
#X obj 211 185 r i2;
#X msg 418 164 \; freq 55 \; c 1 \; m1 0.49 \; m2 2.9 \; i1 100 \;
i2 400 \;;
#X msg 320 164 \; freq 110 \; c 1 \; m1 2 \; m2 3 \; i1 100 \; i2 120
\;;
#X text 320 132 set params;
#X connect 0 0 3 1;
#X connect 1 0 0 1;
#X connect 2 0 9 0;
#X connect 2 0 28 0;
#X connect 3 0 2 0;
#X connect 4 0 1 0;
#X connect 5 0 6 0;
#X connect 6 0 4 0;
#X connect 7 0 3 0;
#X connect 9 0 8 0;
#X connect 9 0 8 1;
#X connect 10 0 0 0;
#X connect 11 0 12 0;
#X connect 12 0 7 0;
#X connect 14 0 10 0;
#X connect 15 0 14 0;
#X connect 18 0 3 1;
#X connect 19 0 18 1;
#X connect 20 0 19 0;
#X connect 21 0 22 0;
#X connect 22 0 20 0;
#X connect 23 0 18 0;
#X connect 24 0 23 0;
#X connect 25 0 24 0;
#X connect 29 0 28 1;
#X connect 30 0 28 2;
#X connect 34 0 24 1;
#X connect 34 0 14 1;
#X connect 34 0 12 1;
#X connect 36 0 11 0;
#X connect 37 0 15 0;
#X connect 38 0 25 0;
#X connect 39 0 34 0;
#X connect 40 0 5 0;
#X connect 41 0 21 0;
