#N canvas 625 47 643 242 12;
#X obj 38 59 soundfiler;
#N canvas 0 22 450 300 (subpatch) 0;
#X array sample1 604510 float 2;
#X coords 0 1 604510 -1 200 140 1 0 0;
#X restore 339 30 graph;
#X msg 38 33 read -resize glitch_loop.aiff sample1;
#X obj 39 145 tabplay~ sample1;
#X obj 39 101 bng 15 250 50 0 empty empty empty 17 7 0 10 -262144 -1
-1;
#X obj 39 187 output~;
#X msg 106 101 10000;
#X msg 157 101 23000 30000;
#X msg 62 101 stop;
#X connect 2 0 0 0;
#X connect 3 0 5 0;
#X connect 3 0 5 1;
#X connect 4 0 3 0;
#X connect 6 0 3 0;
#X connect 7 0 3 0;
#X connect 8 0 3 0;
