#N canvas 577 108 601 704 12;
#N canvas 0 22 450 300 (subpatch) 0;
#X array sample1 604510 float 2;
#X coords 0 1 604510 -1 200 140 1 0 0;
#X restore 356 176 graph;
#X obj 37 52 openpanel;
#X obj 37 28 bng 15 250 50 0 empty empty empty 0 -6 0 8 -262144 -1
-1;
#X obj 37 104 soundfiler;
#X obj 37 142 expr 44100 / $f1;
#X obj 19 420 phasor~;
#X obj 359 324 hsl 200 15 0 1 0 0 empty empty empty -2 -6 0 8 -262144
-1 -1 10510 1;
#X obj 19 393 *;
#X obj 357 44 hsl 200 15 -2 2 0 0 empty empty empty -2 -6 0 8 -262144
-1 -1 13400 1;
#X obj 357 132 hsl 200 15 0 1 0 0 empty empty empty -2 -6 0 8 -262144
-1 -1 4900 1;
#X obj 357 88 hsl 200 15 0 1 0 0 empty empty empty -2 -6 0 8 -262144
-1 -1 7700 1;
#X obj 19 454 +~;
#X obj 240 217 -;
#X obj 208 142 t f b;
#X obj 240 246 *;
#X obj 19 483 *~;
#X obj 157 548 /~;
#X obj 157 576 +~;
#X obj 19 311 expr 1 / $f1;
#X obj 19 337 *;
#X obj 157 603 unsig~ 20;
#X text 60 25 first load sound file;
#X obj 160 142 t b f;
#X obj 19 598 output~;
#X obj 256 144 t b f;
#X text 352 67 left limit;
#X text 352 111 playback length;
#X text 352 23 playback speed;
#X text 353 339 playing position;
#X msg 37 78 read -resize \$1 sample1;
#X obj 19 548 tabread4~ sample1;
#X obj 256 181 +;
#X connect 1 0 29 0;
#X connect 2 0 1 0;
#X connect 3 0 14 1;
#X connect 3 0 16 1;
#X connect 3 0 4 0;
#X connect 4 0 19 1;
#X connect 5 0 11 0;
#X connect 7 0 5 0;
#X connect 8 0 22 0;
#X connect 9 0 24 0;
#X connect 10 0 13 0;
#X connect 10 0 31 0;
#X connect 11 0 15 0;
#X connect 12 0 14 0;
#X connect 12 0 18 0;
#X connect 13 0 12 1;
#X connect 13 0 11 1;
#X connect 13 0 17 1;
#X connect 13 1 12 0;
#X connect 14 0 15 1;
#X connect 15 0 16 0;
#X connect 15 0 30 0;
#X connect 16 0 17 0;
#X connect 17 0 20 0;
#X connect 18 0 19 0;
#X connect 19 0 7 0;
#X connect 20 0 6 0;
#X connect 22 0 7 0;
#X connect 22 1 7 1;
#X connect 24 0 31 0;
#X connect 24 1 31 1;
#X connect 29 0 3 0;
#X connect 30 0 23 1;
#X connect 30 0 23 0;
#X connect 31 0 12 0;
