#N canvas 639 136 566 345 12;
#N canvas 0 22 450 300 (subpatch) 0;
#X array sample 604510 float 2;
#X coords 0 1 604510 -1 100 70 1 0 0;
#X restore 352 177 graph;
#X obj 50 160 tabread~ sample;
#X obj 86 45 phasor~ 20;
#X obj 86 102 *~ 2205;
#X obj 50 134 +~;
#X floatatom 9 101 10 0 0 2 offset - -;
#X obj 217 119 cos~;
#X obj 50 208 *~;
#X obj 217 143 *~ 0.5;
#X obj 217 167 +~ 0.5;
#X obj 217 95 +~ 0.5;
#X obj 352 134 soundfiler;
#X obj 352 73 openpanel;
#X obj 352 49 bng 15 250 50 0 empty empty empty 0 -6 0 8 -262144 -1
-1;
#X text 377 46 load sound file;
#X msg 352 99 read -resize \$1 sample;
#X obj 51 279 output~;
#X text 213 69 grain windowing;
#X connect 1 0 7 0;
#X connect 2 0 3 0;
#X connect 2 0 10 0;
#X connect 3 0 4 1;
#X connect 4 0 1 0;
#X connect 5 0 4 0;
#X connect 6 0 8 0;
#X connect 7 0 16 1;
#X connect 7 0 16 0;
#X connect 8 0 9 0;
#X connect 9 0 7 1;
#X connect 10 0 6 0;
#X connect 12 0 15 0;
#X connect 13 0 12 0;
#X connect 15 0 11 0;
