#N canvas 361 22 516 266 12;
#X obj 96 203 arduino;
#X floatatom 95 40 5 0 0 2 - - -;
#X msg 156 105 close;
#X obj 95 68 t f b;
#X msg 95 105 open \$1;
#X text 86 18;
#X msg 24 41 devices;
#X text 26 18 1;
#X text 92 18 2;
#X text 150 18 3;
#X msg 256 66 digital 13 \$1;
#X obj 256 42 tgl 15 0 empty empty empty 17 7 0 10 -262144 -1 -1 0
1;
#X text 255 18 4;
#X msg 150 41 pinMode 13 1;
#X msg 368 38 close;
#X text 369 16 5;
#X text 213 146 ===== usage ===== 1 check serial port num of your device
2 set port num and open your device 3 set Pin Mode 13 to OUT (1) 4
on / off Digital pin 13 5 close your device;
#X connect 1 0 3 0;
#X connect 2 0 0 0;
#X connect 3 0 4 0;
#X connect 3 1 2 0;
#X connect 4 0 0 0;
#X connect 6 0 0 0;
#X connect 10 0 0 0;
#X connect 11 0 10 0;
#X connect 13 0 0 0;
#X connect 14 0 0 0;
