#N canvas 361 22 444 313 12;
#X obj 96 261 arduino;
#X floatatom 95 98 5 0 0 2 - - -;
#X msg 156 163 close;
#X obj 95 126 t f b;
#X msg 95 163 open \$1;
#X msg 24 99 devices;
#X msg 256 124 digital 13 \$1;
#X msg 150 99 pinMode 13 1;
#X msg 368 96 close;
#X obj 256 65 metro 1000;
#X floatatom 323 28 8 0 0 0 - - -;
#X obj 256 28 tgl 15 0 empty empty empty 17 7 0 10 -262144 -1 -1 1
1;
#X obj 256 97 tgl 15 0 empty empty empty 17 7 0 10 -262144 -1 -1 0
1;
#X connect 1 0 3 0;
#X connect 2 0 0 0;
#X connect 3 0 4 0;
#X connect 3 1 2 0;
#X connect 4 0 0 0;
#X connect 5 0 0 0;
#X connect 6 0 0 0;
#X connect 7 0 0 0;
#X connect 8 0 0 0;
#X connect 9 0 12 0;
#X connect 10 0 9 1;
#X connect 11 0 9 0;
#X connect 12 0 6 0;
