#N canvas 549 22 444 313 12;
#X obj 110 250 arduino;
#X floatatom 109 87 5 0 0 2 - - -;
#X msg 170 152 close;
#X obj 109 115 t f b;
#X msg 109 152 open \$1;
#X msg 38 88 devices;
#X msg 382 85 close;
#X msg 164 88 pinMode 11 3;
#X floatatom 270 86 5 0 0 0 - - -;
#X obj 273 57 hsl 128 15 0 1 0 0 empty empty PWM_value_(0_-_1) -2 -8
0 10 -262144 -1 -1 0 1;
#X msg 270 113 pwm 11 \$1;
#X connect 1 0 3 0;
#X connect 2 0 0 0;
#X connect 3 0 4 0;
#X connect 3 1 2 0;
#X connect 4 0 0 0;
#X connect 5 0 0 0;
#X connect 6 0 0 0;
#X connect 7 0 0 0;
#X connect 8 0 10 0;
#X connect 9 0 8 0;
#X connect 10 0 0 0;
