#N canvas 549 22 459 435 12;
#X obj 93 350 arduino;
#X floatatom 92 187 5 0 0 2 - - -;
#X msg 153 252 close;
#X obj 92 215 t f b;
#X msg 92 252 open \$1;
#X msg 21 188 devices;
#X msg 365 185 close;
#X msg 147 188 pinMode 11 3;
#X floatatom 253 186 5 0 0 0 - - -;
#X obj 256 157 hsl 128 15 0 1 0 0 empty empty empty -2 -8 0 10 -262144
-1 -1 12649 1;
#X msg 253 213 pwm 11 \$1;
#X obj 253 95 snapshot~ 20;
#X obj 12 15 pddp/dsp;
#X obj 253 56 osc~ 1;
#X obj 307 54 metro 20;
#X obj 307 24 tgl 15 0 empty empty empty 17 7 0 10 -262144 -1 -1 0
1;
#X obj 253 126 expr $f1 / 2 + 0.5;
#X floatatom 253 22 5 0 0 0 - - -;
#X connect 1 0 3 0;
#X connect 2 0 0 0;
#X connect 3 0 4 0;
#X connect 3 1 2 0;
#X connect 4 0 0 0;
#X connect 5 0 0 0;
#X connect 6 0 0 0;
#X connect 7 0 0 0;
#X connect 8 0 10 0;
#X connect 9 0 8 0;
#X connect 10 0 0 0;
#X connect 11 0 16 0;
#X connect 13 0 11 0;
#X connect 14 0 11 0;
#X connect 15 0 14 0;
#X connect 16 0 9 0;
#X connect 17 0 13 0;
