#N canvas 790 125 371 325 10;
#X floatatom 95 34 5 0 0 2 - - -;
#X msg 156 98 close;
#X obj 95 61 t f b;
#X msg 95 98 open \$1;
#X msg 24 34 devices;
#X msg 277 36 close;
#X obj 94 197 route analog;
#X obj 94 231 route 0 1 2 3 4 5 6 7;
#X floatatom 109 263 8 0 0 3 analogPin_1 - -;
#X obj 95 168 arduino 2;
#X msg 143 34 analogIns 1 1;
#X text 142 15 enable Analog Pin 1;
#X obj 180 198 print msg;
#X connect 0 0 2 0;
#X connect 1 0 9 0;
#X connect 2 0 3 0;
#X connect 2 1 1 0;
#X connect 3 0 9 0;
#X connect 4 0 9 0;
#X connect 5 0 9 0;
#X connect 6 0 7 0;
#X connect 7 1 8 0;
#X connect 9 0 6 0;
#X connect 9 0 12 0;
#X connect 10 0 9 0;
