#N canvas 596 27 564 427 10;
#X floatatom 108 22 5 0 0 2 - - -;
#X msg 169 87 close;
#X obj 108 50 t f b;
#X msg 108 87 open \$1;
#X msg 37 23 devices;
#X msg 269 22 close;
#X obj 108 192 spigot 0;
#X obj 170 189 tgl 20 0 empty empty empty 0 -6 0 8 -258699 -1 -1 0
1;
#X obj 108 231 route analog;
#X obj 108 253 route 0 1 2 3 4 5 6 7;
#X msg 163 23 pinMode 1 2;
#X floatatom 123 292 8 0 0 3 analogPin_1 - -;
#X obj 204 195 print out;
#X obj 108 157 arduino 2;
#X connect 0 0 2 0;
#X connect 1 0 13 0;
#X connect 2 0 3 0;
#X connect 2 1 1 0;
#X connect 3 0 13 0;
#X connect 4 0 13 0;
#X connect 5 0 13 0;
#X connect 6 0 8 0;
#X connect 7 0 6 1;
#X connect 8 0 9 0;
#X connect 9 1 11 0;
#X connect 10 0 13 0;
#X connect 13 0 6 0;
#X connect 13 1 12 0;
