#N canvas 711 23 351 273 12;
#X obj 201 165 r myToggle;
#X obj 58 165 r myMsg;
#X obj 119 165 r myNumber;
#X msg 55 51 \; myMsg Hello \; myNumber 777 \; myToggle 1 \;;
#X obj 58 204 print;
#X floatatom 119 203 5 0 0 0 - - -;
#X obj 201 208 tgl 15 0 empty empty empty 17 7 0 10 -262144 -1 -1 0
1;
#X text 54 24 preset A;
#X text 173 23 preset B;
#X msg 174 50 \; myMsg World \; myNumber 3.14 \; myToggle 0 \;;
#X connect 0 0 6 0;
#X connect 1 0 4 0;
#X connect 2 0 5 0;
