#N canvas 774 180 297 298 12;
#N canvas 1089 179 312 299 poweroftwo 1;
#X obj 108 38 inlet;
#X floatatom 108 74 5 0 0 0 - - -;
#X obj 108 109 t f f;
#X obj 108 145 expr $f1 * $f2;
#X floatatom 108 182 5 0 0 0 - - -;
#X obj 108 216 outlet;
#X connect 0 0 1 0;
#X connect 1 0 2 0;
#X connect 2 0 3 0;
#X connect 2 1 3 1;
#X connect 3 0 4 0;
#X connect 4 0 5 0;
#X restore 59 82 pd poweroftwo;
#X floatatom 59 49 8 0 0 0 - - -;
#X floatatom 59 114 8 0 0 0 - - -;
#X connect 0 0 2 0;
#X connect 1 0 0 0;
