#N canvas 580 22 373 251 12;
#N canvas 1042 22 497 443 analogIn 1;
#X obj 61 251 arduino 2;
#X floatatom 63 80 5 0 0 2 - - -;
#X msg 124 144 close;
#X obj 63 107 t f b;
#X msg 63 144 open \$1;
#X obj 63 20 inlet;
#X msg -70 81 analogIns 0 1;
#X msg -70 104 analogIns 1 1;
#X msg -70 127 analogIns 2 1;
#X msg -70 150 analogIns 3 1;
#X msg -70 173 analogIns 4 1;
#X msg -70 196 analogIns 5 1;
#X obj 61 287 route analog;
#X obj 61 321 route 0 1 2 3 4 5;
#X obj 61 373 outlet;
#X obj 111 373 outlet;
#X obj 161 373 outlet;
#X obj 211 373 outlet;
#X obj 261 373 outlet;
#X obj 311 373 outlet;
#X obj -70 22 inlet;
#X connect 0 0 12 0;
#X connect 1 0 3 0;
#X connect 2 0 0 0;
#X connect 3 0 4 0;
#X connect 3 1 2 0;
#X connect 4 0 0 0;
#X connect 5 0 1 0;
#X connect 6 0 0 0;
#X connect 7 0 0 0;
#X connect 8 0 0 0;
#X connect 9 0 0 0;
#X connect 10 0 0 0;
#X connect 11 0 0 0;
#X connect 12 0 13 0;
#X connect 13 0 14 0;
#X connect 13 1 15 0;
#X connect 13 2 16 0;
#X connect 13 3 17 0;
#X connect 13 4 18 0;
#X connect 13 5 19 0;
#X connect 20 0 6 0;
#X connect 20 0 7 0;
#X connect 20 0 8 0;
#X connect 20 0 9 0;
#X connect 20 0 10 0;
#X connect 20 0 11 0;
#X restore 40 91 pd analogIn;
#X floatatom 40 168 5 0 0 3 pin0 - -;
#X floatatom 81 168 5 0 0 3 pin1 - -;
#X floatatom 122 168 5 0 0 3 pin2 - -;
#X floatatom 163 168 5 0 0 3 pin3 - -;
#X floatatom 204 168 5 0 0 3 pin4 - -;
#X floatatom 245 168 5 0 0 3 pin5 - -;
#X floatatom 150 58 5 0 0 1 set_device_num - -;
#X obj 40 58 bng 15 250 50 0 empty empty init_analogIns 17 7 0 10 -262144
-1 -1;
#X text 33 7 ====== Enable All Arduino AnalogIns ===;
#X connect 0 0 1 0;
#X connect 0 1 2 0;
#X connect 0 2 3 0;
#X connect 0 3 4 0;
#X connect 0 4 5 0;
#X connect 0 5 6 0;
#X connect 7 0 0 1;
#X connect 8 0 0 0;
