#N canvas 565 22 865 598 12;
#N canvas 1042 22 497 443 analogIn 0;
#X obj 61 251 arduino 2;
#X floatatom 63 80 5 0 0 2 - - -;
#X msg 124 144 close;
#X obj 63 107 t f b;
#X msg 63 144 open \$1;
#X obj 63 20 inlet;
#X msg -70 81 analogIns 0 1;
#X msg -70 104 analogIns 1 1;
#X msg -70 127 analogIns 2 1;
#X msg -70 150 analogIns 3 1;
#X msg -70 173 analogIns 4 1;
#X msg -70 196 analogIns 5 1;
#X obj 61 287 route analog;
#X obj 61 321 route 0 1 2 3 4 5;
#X obj 61 373 outlet;
#X obj 111 373 outlet;
#X obj 161 373 outlet;
#X obj 211 373 outlet;
#X obj 261 373 outlet;
#X obj 311 373 outlet;
#X obj -70 22 inlet;
#X connect 0 0 12 0;
#X connect 1 0 3 0;
#X connect 2 0 0 0;
#X connect 3 0 4 0;
#X connect 3 1 2 0;
#X connect 4 0 0 0;
#X connect 5 0 1 0;
#X connect 6 0 0 0;
#X connect 7 0 0 0;
#X connect 8 0 0 0;
#X connect 9 0 0 0;
#X connect 10 0 0 0;
#X connect 11 0 0 0;
#X connect 12 0 13 0;
#X connect 13 0 14 0;
#X connect 13 1 15 0;
#X connect 13 2 16 0;
#X connect 13 3 17 0;
#X connect 13 4 18 0;
#X connect 13 5 19 0;
#X connect 20 0 6 0;
#X connect 20 0 7 0;
#X connect 20 0 8 0;
#X connect 20 0 9 0;
#X connect 20 0 10 0;
#X connect 20 0 11 0;
#X restore 40 91 pd analogIn;
#X floatatom 40 168 5 0 0 3 pin0 - -;
#X floatatom 81 168 5 0 0 3 pin1 - -;
#X floatatom 122 168 5 0 0 3 pin2 - -;
#X floatatom 163 168 5 0 0 3 pin3 - -;
#X floatatom 204 168 5 0 0 3 pin4 - -;
#X floatatom 245 168 5 0 0 3 pin5 - -;
#X floatatom 150 58 5 0 0 1 set_device_num - -;
#X obj 40 58 bng 15 250 50 0 empty empty init_analogIns 17 7 0 10 -262144
-1 -1;
#X obj 467 397 *~;
#X obj 482 373 line~;
#X obj 392 471 cos~;
#X obj 392 446 +~;
#X obj 482 350 pack 0 50;
#X floatatom 482 302 8 0 1000 0 - - -;
#X obj 482 326 / 100;
#X obj 392 202 phasor~;
#X obj 393 537 output~;
#X obj 392 506 hip~;
#X obj 467 201 osc~;
#X floatatom 392 132 5 0 15 0 - - -;
#X obj 392 175 *;
#X text 389 51 carrier;
#X obj 467 175 *;
#X floatatom 467 132 5 0 15 0 - - -;
#X text 465 51 mod 1;
#X text 480 225 index1;
#X obj 560 399 *~;
#X obj 575 375 line~;
#X obj 575 352 pack 0 50;
#X floatatom 575 304 8 0 1000 0 - - -;
#X obj 575 328 / 100;
#X obj 560 203 osc~;
#X obj 560 175 *;
#X floatatom 560 132 5 0 15 0 - - -;
#X text 558 52 mod 2;
#X text 578 225 index2;
#N canvas 122 211 558 609 fft 0;
#X obj 19 61 inlet~;
#X obj 208 212 inlet;
#X obj 29 92 rfft~;
#X obj 29 125 *~;
#X obj 60 125 *~;
#X obj 29 155 sqrt~;
#X obj 332 109 block~ 4096 1;
#X obj 29 181 biquad~ 0 0 0 0 1;
#X text 93 93 Fourier series;
#X text 98 146 magnitude;
#X text 96 131 calculate;
#X text 21 3 This subpatch computes the spectrum of the incoming signal
with a (rectangular windowed) FFT. FFTs aren't properly introduced
until much later.;
#X text 83 61 signal to analyze;
#X text 193 164 delay two samples;
#X text 191 182 for better graphing;
#X obj 19 459 samplerate~;
#X obj 19 436 bng 18 250 50 0 empty empty empty 0 -6 0 8 -262144 -1
-1;
#X floatatom 19 506 5 0 0 0 - - -;
#X obj 19 482 / 256;
#X obj 19 412 loadbang;
#X obj 75 528 s fundamental;
#X text 17 359 At load time \, calculate a good choice of fundamental
frequency for showing spectra: the 16th bin in a 4096-point spectrum
\, so SR*16/4096 or SR/256.;
#X obj 231 259 metro 500;
#X obj 231 236 inlet;
#X text 284 234 toggle to graph repeatedly;
#X text 262 212 bang to graph once;
#X obj 19 295 tabwrite~ E09-signal;
#X obj 19 528 t b f;
#X msg 19 551 \; cm 6;
#X text 25 585 set carrier multiplier after fundamental;
#X obj 29 205 /~ 4096;
#X msg 209 322 \; pd dsp 1;
#X obj 231 298 tabwrite~ spectrum;
#X connect 0 0 2 0;
#X connect 0 0 26 0;
#X connect 1 0 26 0;
#X connect 1 0 31 0;
#X connect 1 0 32 0;
#X connect 2 0 3 0;
#X connect 2 0 3 1;
#X connect 2 1 4 0;
#X connect 2 1 4 1;
#X connect 3 0 5 0;
#X connect 4 0 5 0;
#X connect 5 0 7 0;
#X connect 7 0 30 0;
#X connect 15 0 18 0;
#X connect 16 0 15 0;
#X connect 17 0 27 0;
#X connect 18 0 17 0;
#X connect 19 0 16 0;
#X connect 22 0 26 0;
#X connect 22 0 32 0;
#X connect 23 0 22 0;
#X connect 23 0 31 0;
#X connect 27 0 28 0;
#X connect 27 1 20 0;
#X connect 30 0 32 0;
#X restore 428 507 pd fft;
#X obj 467 463 bng 18 250 50 0 empty empty empty 0 -6 0 8 -262144 -1
-1;
#X obj 467 484 tgl 18 0 empty empty empty 0 -6 0 8 -262144 -1 -1 1
1;
#X text 488 483 <-- repeatedly;
#X text 489 463 <-- graph once;
#N canvas 0 22 450 300 (subpatch) 0;
#X array spectrum 259 float 0;
#X coords 0 0.51 258 -0.008 259 130 1 0 0;
#X restore 24 447 graph;
#X floatatom 644 132 8 0 0 0 - - -;
#X text 639 52 Fundamental Freq.;
#X obj 392 73 r c;
#X obj 467 73 r m1;
#X obj 560 73 r m2;
#X obj 644 74 r freq;
#X obj 482 249 r i1;
#X obj 575 249 r i2;
#X obj 482 274 line;
#X obj 575 276 line;
#X obj 392 102 line;
#X obj 467 102 line;
#X obj 560 104 line;
#X obj 644 104 line;
#X text 699 440 preset A;
#X msg 700 465 \; freq 110 1000 \; c 1 1000 \; m1 2 1000 \; m2 3 1000
\; i1 100 1000 \; i2 120 1000 \;;
#X obj 40 247 s freq;
#X obj 644 160 t b f;
#X obj 40 219 map 0 1 20 800;
#X obj 81 301 s c;
#X obj 81 273 map 0 1 0 10;
#X obj 122 324 map 0 1 0 10;
#X obj 122 352 s m1;
#X obj 163 216 map 0 1 20 800;
#X obj 163 244 s m2;
#X obj 204 298 s i1;
#X obj 204 270 map 0 1 0 1000;
#X obj 245 349 s i2;
#X obj 245 321 map 0 1 0 1000;
#X connect 0 0 1 0;
#X connect 0 1 2 0;
#X connect 0 2 3 0;
#X connect 0 3 4 0;
#X connect 0 4 5 0;
#X connect 0 5 6 0;
#X connect 1 0 61 0;
#X connect 2 0 63 0;
#X connect 3 0 64 0;
#X connect 4 0 66 0;
#X connect 5 0 69 0;
#X connect 6 0 71 0;
#X connect 7 0 0 1;
#X connect 8 0 0 0;
#X connect 9 0 12 1;
#X connect 10 0 9 1;
#X connect 11 0 18 0;
#X connect 11 0 37 0;
#X connect 12 0 11 0;
#X connect 13 0 10 0;
#X connect 14 0 15 0;
#X connect 15 0 13 0;
#X connect 16 0 12 0;
#X connect 18 0 17 0;
#X connect 18 0 17 1;
#X connect 19 0 9 0;
#X connect 20 0 21 0;
#X connect 21 0 16 0;
#X connect 23 0 19 0;
#X connect 24 0 23 0;
#X connect 27 0 12 1;
#X connect 28 0 27 1;
#X connect 29 0 28 0;
#X connect 30 0 31 0;
#X connect 31 0 29 0;
#X connect 32 0 27 0;
#X connect 33 0 32 0;
#X connect 34 0 33 0;
#X connect 38 0 37 1;
#X connect 39 0 37 2;
#X connect 43 0 60 0;
#X connect 45 0 53 0;
#X connect 46 0 54 0;
#X connect 47 0 55 0;
#X connect 48 0 56 0;
#X connect 49 0 51 0;
#X connect 50 0 52 0;
#X connect 51 0 14 0;
#X connect 52 0 30 0;
#X connect 53 0 20 0;
#X connect 54 0 24 0;
#X connect 55 0 34 0;
#X connect 56 0 43 0;
#X connect 60 0 33 0;
#X connect 60 0 23 0;
#X connect 60 0 21 0;
#X connect 60 1 33 1;
#X connect 60 1 23 1;
#X connect 60 1 21 1;
#X connect 61 0 59 0;
#X connect 63 0 62 0;
#X connect 64 0 65 0;
#X connect 66 0 67 0;
#X connect 69 0 68 0;
#X connect 71 0 70 0;
